# xmcd CD database file
# Copyright (C) 1997 Ti Kan
# 
# Track frame offsets:
#     182
#     15587
#     34630
#     50370
#     66917
#     79825
#     98790
#     110927
#     127660
#     141590
#     154975
#     168670
# 
# Disc length: 2444 seconds
# 
# Revision: 1
# Processed by: cddbd v1.4b41PL1 Copyright (c) Steve Scherf et al.
# Submitted via: DiscPlay 4.0.3
# 
DISCID=a3098a0c
DTITLE=Carole King - Carole King
DYEAR=1900
DGENRE=
TTITLE0=Nightingale
TTITLE1=Change in Mind, Change of Heart
TTITLE2=Jazzman
TTITLE3=You Go Your Way, I'll Go Mine
TTITLE4=You're Something New
TTITLE5=We Are All In This Together
TTITLE6=Wrap Around Joy
TTITLE7=You Gentle Me
TTITLE8=My Lovin' Eyes
TTITLE9=Sweet Adonis
TTITLE10=A Night This Side of Dying
TTITLE11=The Best Yet Is To Come
EXTD=
EXTT0=
EXTT1=
EXTT2=
EXTT3=
EXTT4=
EXTT5=
EXTT6=
EXTT7=
EXTT8=
EXTT9=
EXTT10=
EXTT11=
PLAYORDER=
